<svg width="62" height="61" viewBox="0 0 62 61" fill="none" xmlns="http://www.w3.org/2000/svg">
<path d="M58.8442 41.6377V6.03316C60.2349 5.7514 61.2851 4.5196 61.2851 3.04691C61.2851 1.36678 59.9184 0 58.2383 0H4.04679C2.36678 0 1 1.3669 1 3.04691C1 4.5196 2.05022 5.75128 3.44095 6.03304V41.6376C2.05022 41.9193 1 43.1511 1 44.6237C1 46.3039 2.36678 47.6707 4.04679 47.6707H24.5609L18.1034 58.8554C17.9331 59.1502 17.9331 59.5136 18.1034 59.8085C18.2736 60.1033 18.5883 60.285 18.9287 60.285H22.8388C23.1794 60.285 23.494 60.1033 23.6642 59.8085L30.6721 47.6707H32.1148L39.1227 59.8085C39.2929 60.1033 39.6075 60.285 39.948 60.285H43.8581C44.1986 60.285 44.5133 60.1033 44.6835 59.8085C44.8537 59.5136 44.8537 59.1502 44.6835 58.8554L38.226 47.6707H58.2382C59.9183 47.6707 61.285 46.3038 61.285 44.6237C61.285 43.1512 60.2349 41.9194 58.8442 41.6377ZM56.938 6.09381V41.5769H5.3472V6.09381H56.938ZM2.90625 3.04691C2.90625 2.41796 3.41784 1.90625 4.04679 1.90625H58.2383C58.8672 1.90625 59.3789 2.41796 59.3789 3.04691C59.3789 3.67585 58.8672 4.18756 58.2383 4.18756H4.04679C3.41784 4.18756 2.90625 3.67585 2.90625 3.04691ZM22.2887 58.3788H20.5797L26.762 47.6707H28.471L22.2887 58.3788ZM42.2073 58.3788H40.4983L34.3159 47.6707H36.0248L42.2073 58.3788ZM58.2383 45.7644H4.04679C3.41784 45.7644 2.90625 45.2527 2.90625 44.6237C2.90625 43.9949 3.41784 43.4832 4.04679 43.4832H58.2383C58.8672 43.4832 59.3789 43.9949 59.3789 44.6237C59.3789 45.2527 58.8672 45.7644 58.2383 45.7644ZM9.35081 29.1911H34.2801C34.636 29.1911 34.9622 28.9928 35.1261 28.6771C35.29 28.3611 35.2644 27.9802 35.0595 27.6893L29.3498 19.5802C28.7094 18.6707 27.7441 18.1698 26.6317 18.1698C25.5195 18.1698 24.5541 18.6708 23.9138 19.5802L23.1373 20.683L22.089 19.1941L21.1468 17.8561C20.4811 16.9105 19.4775 16.3897 18.3212 16.3897C18.0196 16.3897 17.7289 16.4259 17.4514 16.495V15.0271C17.6678 15.0053 17.9213 15.0733 18.3436 15.1982C18.809 15.3356 19.3858 15.5063 20.0866 15.5063C20.465 15.5063 20.8798 15.4565 21.3324 15.325C21.8118 15.1855 22.1025 14.6997 21.9986 14.2113C21.8412 13.4726 21.8798 13.2261 21.9385 12.8533C21.9825 12.5728 22.0373 12.2238 22.0189 11.6966C22.0088 11.4028 21.8634 11.1301 21.6253 10.9576C21.3872 10.7852 21.0829 10.7324 20.8004 10.8144C20.0463 11.0336 19.5078 10.8743 18.8842 10.6901C18.3897 10.5439 17.8204 10.3763 17.1889 10.4558C17.0152 10.273 16.7705 10.1584 16.4984 10.1584C15.972 10.1584 15.5452 10.5852 15.5452 11.1115V11.7287V14.4095V17.7893C15.5288 17.8115 15.5117 17.833 15.4956 17.8559L8.57198 27.6892C8.36705 27.9802 8.34133 28.361 8.50527 28.6769C8.6692 28.9927 8.99494 29.1911 9.35081 29.1911ZM18.3434 12.5183C18.7929 12.6511 19.3467 12.8148 20.0157 12.8257C19.9884 13.0401 19.9707 13.2839 19.9885 13.5987C19.607 13.5838 19.261 13.4815 18.8838 13.3699C18.4771 13.2498 18.0201 13.1145 17.519 13.1145C17.4965 13.1145 17.4738 13.1148 17.4511 13.1154V12.3463C17.6673 12.3246 17.9213 12.3935 18.3434 12.5183ZM17.0537 18.9534C17.361 18.517 17.7872 18.2958 18.3208 18.2958C18.8545 18.2958 19.2808 18.517 19.588 18.9534L20.53 20.2913L21.3303 21.4279L22.3578 22.8873L23.6426 24.7123C23.8283 24.9759 24.1231 25.1168 24.4228 25.1168C24.6125 25.1168 24.804 25.0603 24.9708 24.9429C25.4012 24.6399 25.5044 24.0453 25.2014 23.615L24.3027 22.3387L25.4723 20.6776C25.7533 20.2783 26.1433 20.0761 26.6315 20.0761C27.1197 20.0761 27.5099 20.2784 27.7909 20.6776L32.4432 27.2848H11.1876L17.0537 18.9534ZM51.8656 28.8184V29.9918C51.8656 30.5182 51.4388 30.945 50.9124 30.945C50.3861 30.945 49.9593 30.5182 49.9593 29.9918V28.8184C49.9593 28.292 50.3861 27.8653 50.9124 27.8653C51.4388 27.8653 51.8656 28.292 51.8656 28.8184ZM51.8656 26.137C51.8656 26.6633 51.4388 27.0901 50.9124 27.0901C50.3861 27.0901 49.9593 26.6633 49.9593 26.137V24.8673C49.9593 24.3409 50.3861 23.9141 50.9124 23.9141C51.4388 23.9141 51.8656 24.3409 51.8656 24.8673V26.137ZM51.8656 22.1858C51.8656 22.7122 51.4388 23.139 50.9124 23.139C50.3861 23.139 49.9593 22.7122 49.9593 22.1858V21.1875C49.9593 20.6612 50.3861 20.2344 50.9124 20.2344C51.4388 20.2344 51.8656 20.6612 51.8656 21.1875V22.1858ZM50.9124 16.7899C51.4388 16.7899 51.8656 17.2167 51.8656 17.743V18.506C51.8656 19.0324 51.4388 19.4591 50.9124 19.4591C50.3861 19.4591 49.9593 19.0324 49.9593 18.506V17.743C49.9593 17.2167 50.3861 16.7899 50.9124 16.7899ZM48.428 13.7913C48.6891 13.3343 49.2714 13.1755 49.7283 13.4367C50.1918 13.7016 50.5969 14.0473 50.9321 14.4641C51.2623 14.8742 51.1973 15.4742 50.787 15.8042C50.611 15.9458 50.3999 16.0146 50.1902 16.0146C49.9115 16.0146 49.6353 15.893 49.447 15.6591C49.2616 15.4287 49.0381 15.2377 48.7824 15.0916C48.3253 14.8305 48.1669 14.2483 48.428 13.7913ZM44.1929 13.8347C44.1929 13.3083 44.6196 12.8816 45.1461 12.8816H46.4071C46.9335 12.8816 47.3602 13.3083 47.3602 13.8347C47.3602 14.3611 46.9335 14.7878 46.4071 14.7878H45.1461C44.6196 14.7878 44.1929 14.3611 44.1929 13.8347ZM50.9124 37.3055C52.5529 37.3055 53.8875 35.9708 53.8875 34.3303C53.8875 32.6899 52.5529 31.3552 50.9124 31.3552C49.272 31.3552 47.9373 32.6898 47.9373 34.3303C47.9373 35.9709 49.2719 37.3055 50.9124 37.3055ZM50.9124 33.2614C51.5018 33.2614 51.9812 33.7409 51.9812 34.3303C51.9812 34.9199 51.5018 35.3993 50.9124 35.3993C50.323 35.3993 49.8435 34.9198 49.8435 34.3303C49.8435 33.741 50.3229 33.2614 50.9124 33.2614ZM29.8808 15.8423L30.5476 15.1754L29.8808 14.5086C29.5086 14.1364 29.5086 13.533 29.8808 13.1608C30.2529 12.7885 30.8563 12.7885 31.2286 13.1608L31.8955 13.8275L32.5622 13.1608C32.9345 12.7885 33.5379 12.7885 33.9101 13.1608C34.2823 13.533 34.2823 14.1364 33.9101 14.5086L33.2432 15.1754L33.9101 15.8423C34.2823 16.2144 34.2823 16.8179 33.9101 17.19C33.724 17.3762 33.4802 17.4692 33.2362 17.4692C32.9922 17.4692 32.7483 17.3762 32.5621 17.19L31.8953 16.5233L31.2284 17.19C30.8562 17.5623 30.2528 17.5623 29.8806 17.19C29.5085 16.8179 29.5086 16.2144 29.8808 15.8423ZM8.67683 33.9464C8.30463 33.5742 8.30463 32.9707 8.67683 32.5985C9.04902 32.2263 9.65246 32.2263 10.0247 32.5985L10.6915 33.2654L11.3583 32.5985C11.7305 32.2263 12.334 32.2263 12.7061 32.5985C13.0784 32.9707 13.0784 33.5742 12.7061 33.9464L12.0393 34.6132L12.7061 35.2801C13.0784 35.6523 13.0784 36.2557 12.7061 36.6279C12.5201 36.814 12.2762 36.907 12.0322 36.907C11.7882 36.907 11.5443 36.814 11.3582 36.6279L10.6914 35.961L10.0245 36.6279C9.65235 37 9.04891 37 8.67671 36.6279C8.30451 36.2557 8.30451 35.6523 8.67671 35.2801L9.34354 34.6132L8.67683 33.9464ZM39.2735 29.9917V28.8183C39.2735 28.2919 39.7003 27.8652 40.2267 27.8652C40.753 27.8652 41.1798 28.2919 41.1798 28.8183V29.9917C41.1798 30.5181 40.753 30.9448 40.2267 30.9448C39.7003 30.9448 39.2735 30.5181 39.2735 29.9917ZM39.2735 26.137V24.8673C39.2735 24.3409 39.7003 23.9141 40.2267 23.9141C40.753 23.9141 41.1798 24.3409 41.1798 24.8673V26.137C41.1798 26.6633 40.753 27.0901 40.2267 27.0901C39.7003 27.0901 39.2735 26.6633 39.2735 26.137ZM39.2735 22.1858V21.1875C39.2735 20.6612 39.7003 20.2344 40.2267 20.2344C40.753 20.2344 41.1798 20.6612 41.1798 21.1875V22.1858C41.1798 22.7122 40.753 23.139 40.2267 23.139C39.7003 23.139 39.2735 22.7122 39.2735 22.1858ZM39.2735 18.506V17.743C39.2735 17.2167 39.7003 16.7899 40.2267 16.7899C40.753 16.7899 41.1798 17.2167 41.1798 17.743V18.506C41.1798 19.0324 40.753 19.4591 40.2267 19.4591C39.7003 19.4591 39.2735 19.0324 39.2735 18.506ZM40.2068 14.4642C40.542 14.0474 40.947 13.7018 41.4106 13.4367C41.8675 13.1755 42.4497 13.3343 42.7111 13.7912C42.9724 14.2481 42.8138 14.8304 42.3567 15.0916C42.101 15.2378 41.8774 15.4287 41.6922 15.6589C41.5038 15.893 41.2276 16.0146 40.9489 16.0146C40.7393 16.0146 40.5282 15.9458 40.3522 15.8042C39.9419 15.4741 39.8767 14.8744 40.2068 14.4642ZM25.7502 33.9652C25.7502 34.4915 25.3234 34.9183 24.7971 34.9183H20.7127L21.9363 35.6247C22.392 35.888 22.5483 36.4709 22.285 36.9267C22.1085 37.2324 21.7881 37.4033 21.4587 37.4033C21.2971 37.4033 21.1331 37.3622 20.983 37.2756L16.679 34.7907C16.3841 34.6203 16.2025 34.3057 16.2025 33.9652C16.2025 33.6247 16.3841 33.3101 16.679 33.1398L20.983 30.6549C21.4388 30.3919 22.0218 30.5479 22.2849 31.0037C22.5481 31.4596 22.3919 32.0425 21.9362 32.3057L20.7126 33.012H24.7969C25.3233 33.012 25.7502 33.4388 25.7502 33.9652ZM29.7013 33.9652C29.7013 34.4915 29.2746 34.9183 28.7482 34.9183H27.4785C26.9521 34.9183 26.5253 34.4915 26.5253 33.9652C26.5253 33.4388 26.9521 33.012 27.4785 33.012H28.7482C29.2746 33.012 29.7013 33.4388 29.7013 33.9652ZM33.381 33.9652C33.381 34.4915 32.9543 34.9183 32.4279 34.9183H31.4297C30.9034 34.9183 30.4766 34.4915 30.4766 33.9652C30.4766 33.4388 30.9034 33.012 31.4297 33.012H32.4279C32.9543 33.012 33.381 33.4388 33.381 33.9652ZM35.1093 33.012H35.8722C36.3985 33.012 36.8253 33.4388 36.8253 33.9652C36.8253 34.4915 36.3985 34.9183 35.8722 34.9183H35.1093C34.583 34.9183 34.1562 34.4915 34.1562 33.9652C34.1562 33.4388 34.583 33.012 35.1093 33.012ZM37.8112 33.84C37.4811 33.4299 37.5461 32.8299 37.9563 32.4999C38.1867 32.3145 38.3775 32.0909 38.5237 31.8353C38.7849 31.3783 39.3673 31.2196 39.8243 31.4809C40.2813 31.7422 40.4399 32.3244 40.1787 32.7814C39.9138 33.2448 39.5681 33.6498 39.1513 33.9852C38.9752 34.1269 38.7642 34.1958 38.5544 34.1958C38.2757 34.1958 37.9994 34.074 37.8112 33.84Z" fill="white"/>
</svg>
