<svg width="52" height="51" viewBox="0 0 52 51" fill="none" xmlns="http://www.w3.org/2000/svg">
<path fill-rule="evenodd" clip-rule="evenodd" d="M25.8305 14.7457C20.393 14.7457 15.8164 18.6233 14.7421 23.767C14.6091 24.4038 13.9873 24.8119 13.3535 24.6782C12.7196 24.5445 12.3136 23.9197 12.4466 23.2829C13.745 17.0664 19.2646 12.3889 25.8305 12.3889C32.393 12.3889 37.7377 16.9185 39.1615 22.9734C39.3105 23.6068 38.9202 24.2415 38.2899 24.3912C37.6595 24.5408 37.0278 24.1488 36.8789 23.5153C35.6973 18.4907 31.2717 14.7457 25.8305 14.7457Z" fill="white"/>
<path fill-rule="evenodd" clip-rule="evenodd" d="M19.8431 2.95486C19.8431 1.3223 21.1591 0 22.7838 0H25.808C26.4557 0 26.9808 0.527595 26.9808 1.17841C26.9808 1.82922 26.4557 2.35681 25.808 2.35681H22.7838C22.4545 2.35681 22.1887 2.62395 22.1887 2.95486V7.72327C22.1887 8.26402 21.8224 8.73535 21.3003 8.86654C20.5224 9.06186 19.8415 9.27827 19.1944 9.53449C18.448 9.83013 17.7308 10.1852 16.9485 10.6379C16.4811 10.9083 15.8903 10.8235 15.5169 10.4323L12.2401 6.99958C12.2397 6.99918 12.2393 6.99878 12.2389 6.99837C12.0107 6.76241 11.6372 6.75963 11.4093 6.98107L11.4053 6.98499L7.0344 11.19C6.79985 11.4193 6.79717 11.7943 7.01746 12.0233L7.02063 12.0266L10.3006 15.4627C10.6669 15.8464 10.7321 16.4288 10.4599 16.8847C9.63144 18.2722 9.3281 19.5099 8.892 21.2895C8.87 21.3793 8.84767 21.4704 8.82491 21.563C8.6956 22.0892 8.22575 22.459 7.68633 22.459H2.94073C2.6114 22.459 2.34553 22.7261 2.34553 23.0571V29.1344C2.34553 29.7853 1.82046 30.3128 1.17277 30.3128C0.525066 30.3128 0 29.7853 0 29.1344V23.0571C0 21.4244 1.31599 20.1022 2.94073 20.1022H6.76744C7.0752 18.8624 7.40092 17.6916 8.01178 16.4696L5.33105 13.6613C5.33046 13.6607 5.32989 13.6601 5.32931 13.6595C4.20261 12.4864 4.24653 10.62 5.40568 9.49402L5.40972 9.49003L9.78129 5.28435C10.9488 4.15269 12.8061 4.19699 13.9265 5.36155L13.9297 5.36484L16.5867 8.1483C17.1654 7.84398 17.7381 7.57807 18.3342 7.34194C18.8214 7.14898 19.3191 6.97792 19.8431 6.82254V2.95486Z" fill="white"/>
<path fill-rule="evenodd" clip-rule="evenodd" d="M32.1568 2.95486C32.1568 1.3223 30.8407 0 29.216 0H26.1919C25.5441 0 25.019 0.527595 25.019 1.17841C25.019 1.82922 25.5441 2.35681 26.1919 2.35681H29.216C29.5454 2.35681 29.8112 2.62395 29.8112 2.95486V7.72327C29.8112 8.26402 30.1774 8.73535 30.6995 8.86654C31.4774 9.06186 32.1584 9.27827 32.8054 9.53449C33.5519 9.83013 34.2691 10.1852 35.0513 10.6379C35.5188 10.9083 36.1095 10.8235 36.4829 10.4323L39.7597 6.99958C39.7601 6.99918 39.7606 6.99878 39.7609 6.99837C39.9892 6.76241 40.3626 6.75963 40.5906 6.98107L40.5946 6.98499L44.9654 11.19C45.2001 11.4193 45.2027 11.7943 44.9824 12.0233L44.9792 12.0266L41.6991 15.4627C41.333 15.8464 41.2677 16.4288 41.5399 16.8847C42.3684 18.2722 42.6717 19.5099 43.1079 21.2895C43.1299 21.3793 43.1522 21.4704 43.175 21.563C43.3042 22.0892 43.7741 22.459 44.3135 22.459H49.0591C49.3884 22.459 49.6543 22.7261 49.6543 23.0571V29.1344C49.6543 29.7853 50.1793 30.3128 50.8271 30.3128C51.4748 30.3128 51.9999 29.7853 51.9999 29.1344V23.0571C51.9999 21.4244 50.6839 20.1022 49.0591 20.1022H45.2324C44.9245 18.8624 44.5988 17.6916 43.9881 16.4696L46.6688 13.6613C46.6693 13.6607 46.67 13.6601 46.6705 13.6595C47.7972 12.4864 47.7533 10.62 46.5941 9.49402L46.5901 9.49003L42.2185 5.28435C41.051 4.15269 39.1937 4.19699 38.0734 5.36155L38.0701 5.36484L35.4132 8.1483C34.8345 7.84398 34.2617 7.57807 33.6657 7.34194C33.1785 7.14898 32.6807 6.97792 32.1568 6.82254V2.95486Z" fill="white"/>
<path fill-rule="evenodd" clip-rule="evenodd" d="M42.488 38.2137C41.0285 38.2137 39.6808 38.6548 38.5755 39.4283C38.0441 39.8001 37.3132 39.6688 36.9429 39.1346C36.5728 38.6006 36.7035 37.8662 37.2351 37.4942C38.7353 36.4444 40.5512 35.8569 42.488 35.8569C47.6023 35.8569 51.7329 40.0076 51.7329 45.1463V50.5088H39.8362C39.1884 50.5088 38.6633 49.9813 38.6633 49.3304C38.6633 48.6796 39.1884 48.1519 39.8362 48.1519H49.3875V45.1463C49.3875 41.3093 46.3068 38.2137 42.488 38.2137Z" fill="white"/>
<path fill-rule="evenodd" clip-rule="evenodd" d="M42.4881 27.4835C40.1807 27.4835 38.3104 29.3629 38.3104 31.6812C38.3104 33.9996 40.1807 35.879 42.4881 35.879C44.7953 35.879 46.6657 33.9996 46.6657 31.6812C46.6657 29.3629 44.7953 27.4835 42.4881 27.4835ZM35.9648 31.6812C35.9648 28.0613 38.8854 25.1267 42.4881 25.1267C46.0907 25.1267 49.0112 28.0613 49.0112 31.6812C49.0112 35.3013 46.0907 38.2359 42.4881 38.2359C38.8854 38.2359 35.9648 35.3013 35.9648 31.6812Z" fill="white"/>
<path fill-rule="evenodd" clip-rule="evenodd" d="M1.23291 45.1463C1.23291 40.0076 5.36371 35.8569 10.4778 35.8569C12.4146 35.8569 14.2305 36.4444 15.7309 37.4942C16.2623 37.8662 16.3932 38.6006 16.0229 39.1346C15.6529 39.6688 14.9219 39.8001 14.3904 39.4283C13.2852 38.6548 11.9373 38.2137 10.4778 38.2137C6.65911 38.2137 3.57844 41.3093 3.57844 45.1463V48.1519H13.6416C14.2893 48.1519 14.8144 48.6796 14.8144 49.3304C14.8144 49.9813 14.2893 50.5088 13.6416 50.5088H1.23291V45.1463Z" fill="white"/>
<path fill-rule="evenodd" clip-rule="evenodd" d="M10.4777 27.4836C8.17052 27.4836 6.30012 29.3629 6.30012 31.6812C6.30012 33.9996 8.17052 35.879 10.4777 35.879C12.785 35.879 14.6554 33.9996 14.6554 31.6812C14.6554 29.3629 12.785 27.4836 10.4777 27.4836ZM3.95459 31.6812C3.95459 28.0613 6.87513 25.1267 10.4777 25.1267C14.0805 25.1267 17.001 28.0613 17.001 31.6812C17.001 35.3013 14.0805 38.2359 10.4777 38.2359C6.87512 38.2359 3.95459 35.3013 3.95459 31.6812Z" fill="white"/>
<path fill-rule="evenodd" clip-rule="evenodd" d="M26.6226 36.0855C22.0576 36.0855 18.3274 39.8141 18.3274 44.4206V48.1509H34.941V44.4206C34.941 39.8337 31.2304 36.0855 26.6459 36.0855H26.6226ZM15.9819 44.4206C15.9819 38.5086 20.7659 33.7288 26.6226 33.7288H26.6459C32.5297 33.7288 37.2866 38.5358 37.2866 44.4206V50.5077H15.9819V44.4206Z" fill="white"/>
<path fill-rule="evenodd" clip-rule="evenodd" d="M26.6458 23.5111C23.8375 23.5111 21.5609 25.7986 21.5609 28.6204C21.5609 31.4422 23.8375 33.7298 26.6458 33.7298C29.4541 33.7298 31.7307 31.4422 31.7307 28.6204C31.7307 25.7986 29.4541 23.5111 26.6458 23.5111ZM19.2153 28.6204C19.2153 24.497 22.5421 21.1543 26.6458 21.1543C30.7495 21.1543 34.0763 24.497 34.0763 28.6204C34.0763 32.7439 30.7495 36.0867 26.6458 36.0867C22.5421 36.0867 19.2153 32.7439 19.2153 28.6204Z" fill="white"/>
</svg>
