<svg width="55" height="55" viewBox="0 0 55 55" fill="none" xmlns="http://www.w3.org/2000/svg">
<path d="M23.7572 8.20056C23.7572 7.68286 24.177 7.26306 24.6947 7.26306H39.3568C39.8745 7.26306 40.2943 7.68286 40.2943 8.20056C40.2943 8.71826 39.8745 9.13806 39.3568 9.13806H24.6947C24.177 9.13806 23.7572 8.71836 23.7572 8.20056ZM16.0284 10.1999C16.2114 10.383 16.4513 10.4745 16.6913 10.4745C16.9313 10.4745 17.1712 10.383 17.3542 10.1999L20.228 7.32606C20.5942 6.96 20.5941 6.36645 20.228 6.00035C19.8619 5.63426 19.2684 5.63426 18.9023 6.00035L16.6914 8.21136L15.9174 7.43726C15.5513 7.07121 14.9578 7.07121 14.5917 7.43726C14.2254 7.80336 14.2256 8.39696 14.5917 8.76306L16.0284 10.1999ZM24.6947 19.1373H39.3568C39.8745 19.1373 40.2943 18.7176 40.2943 18.1998C40.2943 17.6821 39.8745 17.2623 39.3568 17.2623H24.6947C24.177 17.2623 23.7572 17.6821 23.7572 18.1998C23.7572 18.7176 24.177 19.1373 24.6947 19.1373ZM16.0284 20.2996C16.2114 20.4827 16.4513 20.5742 16.6913 20.5742C16.9313 20.5742 17.1712 20.4827 17.3542 20.2996L20.228 17.4258C20.5942 17.0597 20.5941 16.4662 20.228 16.1001C19.8619 15.734 19.2684 15.734 18.9023 16.1001L16.6914 18.3111L15.9174 17.537C15.5513 17.1709 14.9578 17.1709 14.5917 17.537C14.2254 17.9031 14.2256 18.4967 14.5917 18.8628L16.0284 20.2996ZM53.2122 36.9305L49.0665 39.3239C48.6371 39.5719 48.1598 39.6985 47.6753 39.6985C47.4312 39.6985 47.1855 39.6665 46.943 39.6014C46.2195 39.4076 45.6156 38.9451 45.2429 38.2995L45.1294 38.1031L43.0322 39.1739C43.6593 40.1682 43.5686 41.3942 43.0176 42.3415C42.7406 42.8177 42.3447 43.2279 41.8704 43.5113C42.1455 43.9615 42.2916 44.4777 42.2896 45.0275C42.2854 46.1669 41.6438 47.2688 40.655 47.8348C40.1056 48.1492 39.498 48.2712 38.8897 48.2009C38.8585 48.7121 38.7011 49.2143 38.4439 49.656C37.8999 50.59 36.8984 51.2656 35.7466 51.2361C35.7343 51.7881 35.5731 52.3346 35.2958 52.8107C34.7644 53.7228 33.7977 54.3918 32.6788 54.3918C32.1692 54.3918 31.6279 54.2529 31.0819 53.935L28.606 52.4932L28.1244 53.1781C27.521 54.0359 26.6368 54.5124 25.6676 54.5124C25.5788 54.5124 25.4893 54.5084 25.3992 54.5003C24.2876 54.4006 23.2641 53.6948 22.7722 52.6945C21.7279 53.2341 20.5134 53.0377 19.6163 52.4068C19.037 51.9993 18.5834 51.4061 18.3765 50.7231C17.5153 50.9114 16.6131 50.684 15.9073 50.1875C15.0282 49.5691 14.4387 48.5226 14.5614 47.3842C14.0087 47.3262 13.4742 47.1182 13.0206 46.7992C11.7639 45.915 11.0994 44.1558 12.261 42.5044L12.3407 42.3911L9.23277 38.51C8.85707 39.0453 8.31027 39.4295 7.66817 39.6016C7.42587 39.6666 7.17987 39.6986 6.93589 39.6986C6.45143 39.6986 5.97413 39.572 5.54464 39.3241L1.39901 36.9305C0.0623657 36.1589 -0.397244 34.4437 0.374436 33.1069L7.65037 20.5046C7.87397 20.1174 8.17697 19.8043 8.52687 19.5728V0.9375C8.52687 0.41977 8.94657 0 9.46437 0H45.1468C45.6645 0 46.0843 0.41977 46.0843 0.9375V19.5728C46.4341 19.8041 46.7372 20.1173 46.9607 20.5045L54.2367 33.1068C55.0083 34.4437 54.5487 36.1588 53.2122 36.9305ZM10.4019 1.875V19.1246C10.7692 19.1673 11.1339 19.2836 11.474 19.48L15.6197 21.8736C16.2654 22.2463 16.7279 22.8501 16.9217 23.5737C17.0425 24.0248 17.0497 24.4877 16.9477 24.9288L22.1454 26.7855C24.3378 24.8259 25.955 24.1296 29.291 24.8639C32.4183 25.5524 35.0416 25.5588 37.6516 24.8719C37.5629 24.4479 37.5735 24.0054 37.6893 23.5736C37.8831 22.85 38.3456 22.2461 38.9914 21.8734L43.137 19.4799C43.4771 19.2835 43.8418 19.1673 44.2092 19.1246V1.875H10.4019ZM7.74447 37.362L15.0204 24.7596C15.1428 24.5477 15.1749 24.2989 15.1107 24.0591C15.0465 23.8193 14.8942 23.6198 14.6822 23.4974L10.5366 21.1039C10.3915 21.0201 10.2328 20.9802 10.0761 20.9802C9.75637 20.9802 9.44527 21.1461 9.27427 21.4421L1.99831 34.0444C1.74354 34.4857 1.8953 35.052 2.33651 35.3066L6.48225 37.7003C6.69436 37.8228 6.94327 37.8549 7.18292 37.7904C7.42267 37.7262 7.62217 37.5741 7.74447 37.362ZM15.786 44.9846L17.9406 41.9214C18.5953 40.9874 17.8 40.357 17.6338 40.2401C17.4676 40.1232 16.6049 39.5876 15.9476 40.5221L13.7945 43.5829C13.137 44.5177 13.9332 45.1485 14.0995 45.2655C14.2656 45.3825 15.1284 45.9176 15.786 44.9846ZM18.8558 48.1122L21.8656 43.8332L22.3232 43.1826C22.9808 42.2478 22.1845 41.617 22.0182 41.5C21.8518 41.3829 20.9889 40.8468 20.3313 41.7815L19.475 42.9989C19.4749 42.9992 19.4751 42.9987 19.475 42.9989L19.4743 43.0001L17.3197 46.0633L16.6811 46.9711C16.0236 47.9061 16.8199 48.5369 16.9862 48.6538C17.1524 48.7707 18.0154 49.3067 18.6729 48.3722L18.8558 48.1122ZM23.0631 49.6225C23.0638 49.6216 23.0645 49.6206 23.0653 49.6197L24.1449 48.0847L25.3903 46.3142C26.0476 45.3796 25.2516 44.7488 25.0854 44.6317C24.9194 44.515 24.0576 43.979 23.4002 44.9107L23.3992 44.9121L20.3895 49.191L20.3889 49.192C19.733 50.1261 20.5287 50.7564 20.695 50.8734C20.8613 50.9903 21.7243 51.5266 22.3817 50.5918L23.0631 49.6225ZM27.365 48.882C27.1987 48.7649 26.3363 48.229 25.679 49.1628L24.5989 50.6985C24.3244 51.0888 24.2719 51.4737 24.443 51.8427C24.6394 52.2662 25.1015 52.5913 25.5665 52.6329C25.9715 52.6693 26.3161 52.4897 26.5907 52.0995L27.6703 50.5647C28.3276 49.6299 27.5313 48.9989 27.365 48.882ZM40.9714 39.7428L29.3784 33.0323C28.3362 32.4304 27.306 32.8641 25.7113 33.621C25.6339 33.6577 25.5565 33.6945 25.479 33.7311C25.3626 33.9647 25.2452 34.2156 25.1229 34.4767C24.5208 35.7632 23.8383 37.2211 22.6578 37.8584C21.2683 38.6083 20.0283 38.7228 19.1663 38.1804C18.7695 37.9307 18.1135 37.3101 18.1776 35.958L18.4258 30.7326C18.437 30.4945 18.5388 30.2696 18.7101 30.1036C19.1977 29.6315 19.6352 29.2004 20.0583 28.7835C20.2518 28.593 20.438 28.4096 20.6198 28.2314L16.1109 26.6207L10.2473 36.7769L13.464 40.7938L14.414 39.4431C15.5752 37.792 17.4551 37.8227 18.712 38.7058C19.1211 38.9932 19.4675 39.3734 19.7087 39.8124C20.801 39.1117 22.1324 39.2877 23.0969 39.9661C23.9062 40.5353 24.47 41.4675 24.4588 42.5C25.0697 42.5307 25.6661 42.7472 26.1646 43.0981C27.2767 43.8808 27.9249 45.3486 27.2539 46.8205C27.6803 46.9151 28.0871 47.0971 28.4438 47.3481C29.5143 48.1013 30.1543 49.4889 29.6034 50.9042L32.0254 52.3145C33.0132 52.8895 33.5733 52.0424 33.6756 51.8668C33.7779 51.6912 34.238 50.7868 33.2528 50.2113L33.2515 50.2104C33.2514 50.2103 33.2517 50.2105 33.2515 50.2104L30.1301 48.3931C29.6827 48.1326 29.5312 47.5587 29.7917 47.1113C30.0522 46.6639 30.6261 46.5125 31.0736 46.7729L34.1945 48.5901C34.1944 48.59 34.1947 48.5902 34.1945 48.5901C34.1952 48.5905 34.1968 48.5914 34.1975 48.5917L35.1734 49.1602C36.161 49.735 36.7212 48.888 36.8236 48.7124C36.926 48.5368 37.3859 47.6323 36.4007 47.0568L36.3993 47.056C36.3992 47.056 36.3994 47.056 36.3993 47.056C36.399 47.0558 36.3986 47.0555 36.3984 47.0554L32.5724 44.8277C32.125 44.5671 31.9735 43.9933 32.234 43.5459C32.4946 43.0984 33.0685 42.947 33.5159 43.2074L37.3429 45.4357C37.3438 45.4361 37.3445 45.4367 37.3452 45.4372L38.5701 46.1504C38.9826 46.3906 39.3706 46.4097 39.7236 46.2077C40.1288 45.9757 40.413 45.4875 40.4146 45.0207C40.4161 44.6139 40.2078 44.2859 39.7954 44.0458L38.8061 43.4697C38.8059 43.4696 38.8063 43.47 38.8061 43.4697L38.8045 43.4687C38.8043 43.4686 38.8046 43.4688 38.8045 43.4687L35.0149 41.2622C34.5674 41.0017 34.4159 40.4279 34.6764 39.9804C34.937 39.533 35.5108 39.3816 35.9583 39.642L39.7475 41.8482C40.7352 42.4219 41.2947 41.5746 41.3969 41.399C41.4988 41.2232 41.9586 40.3177 40.9714 39.7428ZM44.1906 36.4771L38.4817 26.5888C34.5444 27.7004 31.1474 27.1926 28.8879 26.6951C25.5871 25.9689 24.7784 26.7657 21.3744 30.1195C21.0424 30.4465 20.674 30.8093 20.2811 31.1918L20.0505 36.0473C20.0354 36.3655 20.097 36.5511 20.1649 36.5937C20.3234 36.6933 20.8989 36.6774 21.7672 36.2086C22.4028 35.8655 22.9457 34.7056 23.4248 33.6821C23.5986 33.3106 23.7785 32.9267 23.9636 32.5778C24.0598 32.3968 24.2128 32.2523 24.399 32.1663C24.5687 32.088 24.7381 32.0076 24.9072 31.9272C26.5294 31.157 28.3681 30.2841 30.3168 31.409L41.4712 37.8655L44.1906 36.4771ZM52.6128 34.0443L45.337 21.4421C45.0822 21.0007 44.5158 20.8491 44.0746 21.1039L39.9289 23.4974C39.7169 23.6198 39.5648 23.8193 39.5004 24.0591C39.4362 24.2989 39.4682 24.5477 39.5907 24.7596L46.8666 37.3621C46.989 37.5741 47.1885 37.7262 47.4283 37.7904C47.6683 37.8551 47.9168 37.8228 48.1288 37.7003L52.2747 35.3068C52.7159 35.052 52.8677 34.4856 52.6128 34.0443Z" fill="white"/>
</svg>
