<svg width="55" height="53" viewBox="0 0 55 53" fill="none" xmlns="http://www.w3.org/2000/svg">
<path d="M8.18648 9.0278L9.93258 12.6372L13.8935 13.1763C14.6787 13.2817 14.9599 14.2544 14.4208 14.77L11.5263 17.5474L12.2412 21.4849C12.3818 22.2583 11.5615 22.8442 10.8818 22.4692L7.35438 20.5708L3.82707 22.4692C3.14738 22.8325 2.29191 22.27 2.47941 21.4263L3.18254 17.5357L0.288013 14.7583C-0.274487 14.2192 0.0302033 13.2583 0.827073 13.1528L4.77629 12.6138L6.52238 9.0044C6.85051 8.313 7.85828 8.3247 8.18648 9.0278ZM8.46768 13.9028L7.35438 11.5825L6.22941 13.9028C6.10051 14.1724 5.83098 14.3833 5.51457 14.4302L2.9716 14.77L4.83488 16.5513C5.04582 16.7622 5.16301 17.0669 5.10441 17.3833L4.64738 19.9146L6.89738 18.7075C7.16691 18.5669 7.50678 18.5435 7.78798 18.7075L10.0497 19.9263L9.60438 17.4419C9.53408 17.1372 9.61618 16.7974 9.86218 16.5513L11.7255 14.77L9.20598 14.4302C8.90128 14.395 8.60828 14.1958 8.46768 13.9028ZM28.1318 0.531752L29.8779 4.14112L33.8505 4.68019C34.6357 4.78565 34.9169 5.75831 34.3779 6.28565L31.4833 9.063L32.1982 13.0005C32.3388 13.7739 31.5185 14.3599 30.8388 13.9849L27.288 12.0864L23.7607 13.9849C23.081 14.3482 22.2255 13.7857 22.413 12.9419L23.1162 9.0513L20.2099 6.27393C19.6474 5.73487 19.9521 4.77394 20.749 4.66847L24.6982 4.1294L26.4443 0.531752C26.7958 -0.183098 27.7919 -0.171378 28.1318 0.531752ZM28.413 5.40675L27.288 3.08643L26.1747 5.40675C26.0458 5.67628 25.7763 5.88722 25.4599 5.93409L22.9052 6.27393L24.7685 8.0552C24.9912 8.2661 25.0966 8.5708 25.038 8.8872L24.581 11.4185L26.8427 10.2114C27.1122 10.0708 27.4404 10.0474 27.7333 10.2114L29.9951 11.4302L29.5497 8.9458C29.4794 8.6411 29.5615 8.3013 29.8076 8.0552L31.6708 6.27393L29.1513 5.92237C28.8349 5.89893 28.5537 5.69972 28.413 5.40675ZM48.0654 9.0278L49.8115 12.6372L53.7724 13.1763C54.5576 13.2817 54.8505 14.2544 54.2997 14.77L51.4052 17.5474L52.1201 21.4849C52.2607 22.2583 51.4404 22.8442 50.7607 22.4692L47.2333 20.5708L43.706 22.4692C43.0263 22.8325 42.1708 22.27 42.3466 21.4263L43.0497 17.5357L40.1552 14.7583C39.5927 14.2192 39.8974 13.2583 40.6943 13.1528L44.6435 12.6138L46.3896 9.0044C46.7294 8.313 47.7372 8.3247 48.0654 9.0278ZM48.3466 13.9028L47.2333 11.5825L46.1083 13.9028C45.9794 14.1724 45.7216 14.3833 45.3935 14.4302L42.8505 14.77L44.7021 16.5513C44.913 16.7622 45.0302 17.0669 44.9716 17.3833L44.5146 19.9146L46.7763 18.7075C47.0458 18.5669 47.3857 18.5435 47.6669 18.7075L49.9404 19.9263L49.4951 17.4419C49.4247 17.1372 49.5068 16.7974 49.7529 16.5513L51.6044 14.77L49.0849 14.4302C48.7802 14.395 48.4873 14.1958 48.3466 13.9028ZM22.9404 32.9575C22.6826 32.5122 22.8349 31.938 23.2802 31.6802C23.7255 31.4224 24.2997 31.5747 24.5576 32.02L25.788 34.1528L30.1591 29.7817C30.5224 29.4185 31.1201 29.4185 31.4833 29.7817C31.8466 30.145 31.8466 30.7427 31.4833 31.106L26.2451 36.3442C25.8115 36.7778 25.0849 36.6841 24.7802 36.1567L22.9404 32.9575ZM27.288 23.0552C32.3857 23.0552 36.5224 27.1919 36.5224 32.2896C36.5224 37.3872 32.3857 41.5239 27.288 41.5239C22.1904 41.5239 18.0537 37.3872 18.0537 32.2896C18.0537 27.1919 22.1904 23.0552 27.288 23.0552ZM32.4912 27.0864C29.6201 24.2153 24.956 24.2153 22.0849 27.0864C19.2138 29.9575 19.2138 34.6216 22.0849 37.4927C24.956 40.3638 29.6201 40.3638 32.4912 37.4927C35.3622 34.6099 35.3622 29.9575 32.4912 27.0864ZM27.288 17.2544C35.5849 17.2544 42.3115 23.981 42.3115 32.2778C42.3115 35.4185 41.3505 38.3364 39.6982 40.7505L44.1865 48.52C44.6201 49.2466 44.0224 50.0669 43.249 49.9497L38.6552 49.2232L36.1943 52.2466C35.7607 52.8091 34.9521 52.7153 34.6357 52.1528L31.4951 46.7153C28.7529 47.5122 25.8115 47.5122 23.081 46.7153L19.9404 52.1528C19.624 52.7153 18.8154 52.8091 18.3818 52.2466L15.9208 49.2232L11.3271 49.9497C10.5419 50.0786 9.99118 49.2232 10.3662 48.5552L14.8779 40.7505C10.7997 34.7857 11.5615 26.7583 16.6708 21.6489C19.3779 18.9419 23.1396 17.2544 27.288 17.2544ZM38.456 42.3325C37.0263 43.9263 35.2685 45.2036 33.2763 46.0708L35.5732 50.0435L37.5419 47.6294C37.7646 47.3482 38.1044 47.2427 38.4326 47.3013L41.5966 47.8052L38.456 42.3325ZM21.288 46.0708C19.3076 45.2036 17.5497 43.9263 16.1201 42.3442L12.9677 47.8052L16.1318 47.3013C16.4482 47.2427 16.7997 47.3599 17.0224 47.6294L18.9912 50.0435L21.288 46.0708ZM36.5927 22.9849C31.4599 17.8521 23.1279 17.8521 17.9951 22.9849C12.8622 28.1177 12.8622 36.4497 17.9951 41.5825C23.1396 46.7153 31.4599 46.7153 36.5927 41.5825C41.7255 36.4497 41.7255 28.1177 36.5927 22.9849Z" fill="white"/>
</svg>
