<svg width="63" height="63" viewBox="0 0 63 63" fill="none" xmlns="http://www.w3.org/2000/svg">
<path d="M15.505 20.503C18.1775 20.4332 20.7171 19.3224 22.5826 17.4076C24.4481 15.4926 25.4921 12.9249 25.4921 10.2515C25.4921 7.5781 24.4481 5.01041 22.5826 3.09547C20.7171 1.18055 18.1775 0.0698396 15.505 0C12.7884 0.0362031 10.1931 1.13099 8.27138 3.05144C6.34958 4.97191 5.25306 7.56643 5.215 10.283C5.2298 13.0011 6.32093 15.6026 8.2495 17.518C10.178 19.4334 12.7869 20.5067 15.505 20.503ZM36.946 40.502C36.6618 40.4049 36.3519 40.415 36.0746 40.5302C35.7973 40.6455 35.5717 40.8581 35.4401 41.1282C35.3085 41.3982 35.2801 41.7069 35.3602 41.9964C35.4403 42.2858 35.6234 42.536 35.875 42.7C44.807 47.054 54.53 37.912 50.575 28.63C47.649 22.057 40.215 20.412 34.356 24.059C34.2181 24.1436 34.0982 24.2545 34.0032 24.3854C33.9082 24.5163 33.8399 24.6646 33.8022 24.8219C33.7645 24.9792 33.7582 25.1424 33.7835 25.3022C33.8088 25.4619 33.8654 25.6151 33.95 25.753C34.0346 25.8909 34.1455 26.0108 34.2764 26.1058C34.4073 26.2008 34.5556 26.2691 34.7129 26.3068C34.8702 26.3445 35.0334 26.3509 35.1932 26.3255C35.3529 26.3002 35.5061 26.2436 35.644 26.159C40.215 23.359 46.004 24.514 48.293 29.582C51.289 36.799 43.785 43.799 36.925 40.516L36.946 40.502ZM61.747 36.645L58.317 34.146C58.247 34.069 58.1 33.999 58.1 33.859C58.1385 33.1199 58.1385 32.3792 58.1 31.64C58.0945 31.4844 58.147 31.3323 58.247 31.213L61.6 28.644C62.1338 28.2398 62.5206 27.6721 62.7013 27.0275C62.882 26.3828 62.8468 25.6967 62.601 25.074L61.39 22.358C61.1013 21.7675 60.6385 21.2799 60.0639 20.9607C59.4894 20.6415 58.8308 20.5062 58.177 20.573L54.103 21.273C53.746 21.343 53.669 21.203 53.599 21.126C53.102 20.629 52.598 20.132 52.101 19.726C51.9692 19.5932 51.8917 19.416 51.884 19.229L52.458 15.029C52.5354 14.3643 52.3868 13.693 52.0364 13.1228C51.686 12.5528 51.154 12.1172 50.526 11.886L47.957 10.885C47.3345 10.5987 46.6325 10.5349 45.9686 10.7043C45.3047 10.8739 44.7191 11.2663 44.31 11.816L41.881 15.239C41.811 15.386 41.734 15.456 41.377 15.456H39.235C39.2025 15.471 39.1673 15.4792 39.1315 15.4802C39.0957 15.4812 39.0601 15.475 39.0267 15.462C38.9934 15.4489 38.963 15.4293 38.9375 15.4042C38.9119 15.3791 38.8917 15.3491 38.878 15.316L36.302 11.9C35.8961 11.3687 35.3243 10.9885 34.6773 10.8198C34.0304 10.6511 33.3457 10.7036 32.732 10.969L30.1 12.145C29.4651 12.3892 28.9367 12.8495 28.6076 13.4448C28.2786 14.0402 28.17 14.7325 28.301 15.4L29.001 19.544C29.0238 19.7033 29.0785 19.8562 29.162 19.9937C29.2456 20.1312 29.3561 20.2504 29.4869 20.3439C29.6178 20.4375 29.7663 20.5035 29.9234 20.5381C30.0805 20.5727 30.243 20.575 30.401 20.545C30.7143 20.4821 30.9919 20.3024 31.1778 20.0425C31.3636 19.7826 31.4438 19.4618 31.402 19.145L30.702 14.945C30.632 14.728 30.772 14.511 31.059 14.441L33.663 13.3C33.7714 13.2523 33.8921 13.2401 34.0078 13.2652C34.1235 13.2904 34.2282 13.3516 34.307 13.44L36.876 16.8C37.1424 17.2066 37.5185 17.5295 37.9607 17.7315C38.4029 17.9334 38.8932 18.006 39.375 17.941H41.377C41.8623 17.9619 42.3451 17.8621 42.7824 17.6508C43.2197 17.4395 43.5978 17.1231 43.883 16.73L46.312 13.3C46.3838 13.202 46.4888 13.1337 46.6075 13.1079C46.7261 13.0821 46.8501 13.1007 46.956 13.16L49.7 14.217C49.77 14.287 50.057 14.357 49.98 14.714L49.413 18.858C49.3631 19.3557 49.4259 19.8584 49.5968 20.3286C49.7676 20.7988 50.0421 21.2245 50.4 21.574C50.8764 21.9245 51.3089 22.331 51.688 22.785C52.0315 23.1757 52.4687 23.4725 52.9585 23.6477C53.4484 23.8228 53.9747 23.8704 54.488 23.786L58.485 23.086C58.6213 23.0879 58.7552 23.1211 58.8766 23.183C58.998 23.2448 59.1035 23.3339 59.185 23.443L60.256 26.012C60.3213 26.1265 60.3424 26.2609 60.3154 26.3899C60.2883 26.5189 60.2149 26.6335 60.109 26.712L56.749 29.211C56.3579 29.5101 56.0483 29.9028 55.849 30.353C55.6496 30.8032 55.5667 31.2964 55.608 31.787C55.6431 32.4282 55.6431 33.0708 55.608 33.712C55.6009 34.1949 55.7075 34.6726 55.9191 35.1068C56.1306 35.5408 56.4413 35.9191 56.826 36.211L60.326 38.717C60.466 38.787 60.536 38.997 60.466 39.284L59.318 42C59.318 42.07 59.248 42.287 58.814 42.287L54.67 41.713C54.1654 41.6704 53.6578 41.745 53.1867 41.9307C52.7156 42.1165 52.2938 42.4085 51.954 42.784C51.6047 43.2407 51.1977 43.6501 50.743 44.002C50.3754 44.3604 50.0991 44.8016 49.9371 45.2888C49.7751 45.7759 49.7322 46.2949 49.812 46.802L50.456 50.799C50.4803 50.9309 50.4661 51.067 50.4152 51.1911C50.3643 51.3152 50.2789 51.4221 50.169 51.499L47.6 52.57C47.486 52.6345 47.3525 52.6559 47.224 52.6302C47.0954 52.6045 46.9804 52.5335 46.9 52.43L44.38 49.14C44.0659 48.7258 43.6522 48.3976 43.1775 48.1859C42.7026 47.9742 42.1821 47.8858 41.664 47.929C41.071 47.999 40.472 47.999 39.879 47.929C39.3889 47.9229 38.9048 48.0371 38.4691 48.2617C38.0333 48.4862 37.6594 48.8142 37.38 49.217L34.804 52.64C34.746 52.734 34.6537 52.8018 34.5467 52.8292C34.4396 52.8566 34.3261 52.8415 34.23 52.787L31.661 51.8C31.5448 51.7516 31.4438 51.6727 31.3686 51.5716C31.2935 51.4707 31.247 51.3512 31.234 51.226L31.801 47.026C31.8356 46.6999 31.7438 46.373 31.5446 46.1125C31.3453 45.8521 31.0538 45.6779 30.73 45.626C30.4092 45.617 30.0952 45.7185 29.8403 45.9135C29.5854 46.1085 29.4053 46.3851 29.33 46.697L28.7 50.932C28.6657 51.5891 28.8321 52.2409 29.1772 52.8012C29.5223 53.3613 30.0297 53.8032 30.632 54.068L33.348 55.146C33.6886 55.2829 34.0519 55.3541 34.419 55.356C34.8961 55.3446 35.364 55.2224 35.7856 54.9988C36.2072 54.7752 36.5709 54.4565 36.848 54.068L39.347 50.715C39.494 50.498 39.634 50.428 39.711 50.428C40.4467 50.498 41.1873 50.498 41.923 50.428C42.0053 50.433 42.0856 50.4548 42.159 50.4922C42.2325 50.5295 42.2975 50.5815 42.35 50.645L44.884 53.9C45.3055 54.4322 45.8856 54.8163 46.5402 54.9963C47.1947 55.1763 47.8897 55.1429 48.524 54.901L51.17 53.76C51.7802 53.4745 52.2829 53.001 52.6042 52.4089C52.9255 51.8167 53.0484 51.1372 52.955 50.47L52.255 46.326C52.255 46.046 52.325 45.969 52.402 45.899C52.9045 45.4343 53.3724 44.9337 53.802 44.401C53.9366 44.2718 54.1128 44.1949 54.299 44.184L58.499 44.758C59.1649 44.8444 59.8403 44.6997 60.4123 44.3481C60.9844 43.9964 61.4184 43.4591 61.642 42.826L62.713 40.257C62.9944 39.6283 63.0484 38.9214 62.8658 38.2574C62.6832 37.5932 62.2753 37.0133 61.712 36.617L61.747 36.645ZM31.017 40.215L30.947 31.43C30.947 26.068 26.369 19.068 20.447 21.574C17.2709 22.7853 13.7601 22.7853 10.584 21.574C4.718 18.998 0 26.068 0 31.43V40.215C0 41.713 0.784 43.715 4.291 44.856L6.93 45.717V58.716C6.92803 59.2856 7.04003 59.8499 7.25944 60.3757C7.47884 60.9014 7.80128 61.3778 8.20765 61.7771C8.61401 62.1763 9.09621 62.4902 9.62573 62.7002C10.1552 62.9102 10.7214 63.0121 11.291 63H19.726C20.2918 63.0114 20.8539 62.9084 21.3789 62.6972C21.9038 62.486 22.3806 62.1708 22.7807 61.7707C23.1808 61.3706 23.4959 60.8937 23.7072 60.3688C23.9184 59.8439 24.0214 59.2817 24.01 58.716V45.857L26.726 44.856C27.874 44.429 31.017 43.288 31.017 40.215ZM28.518 40.215C28.518 41.503 26.873 42.14 25.872 42.497L24.01 43.197V32.144C24.0158 31.8138 23.8925 31.4945 23.6663 31.2538C23.4401 31.0133 23.1289 30.8705 22.799 30.856C22.6298 30.856 22.4623 30.8893 22.3061 30.954C22.1498 31.0188 22.0079 31.1136 21.8883 31.2332C21.7687 31.3529 21.6737 31.4948 21.6091 31.6511C21.5443 31.8074 21.511 31.9748 21.511 32.144V58.744C21.5138 58.9792 21.4696 59.2126 21.3808 59.4304C21.2922 59.6483 21.1608 59.8461 20.9945 60.0125C20.8281 60.1788 20.6302 60.3101 20.4124 60.3989C20.1946 60.4875 19.9612 60.5318 19.726 60.529H11.326C11.0857 60.5384 10.8461 60.4992 10.6214 60.4137C10.3967 60.3283 10.1916 60.1983 10.0183 60.0316C9.84506 59.8649 9.70732 59.6649 9.61326 59.4437C9.5192 59.2224 9.47085 58.9844 9.471 58.744V32.144C9.47494 31.8132 9.35011 31.4938 9.12275 31.2534C8.89547 31.013 8.58353 30.8705 8.253 30.856C8.08383 30.856 7.91634 30.8893 7.76008 30.954C7.60382 31.0188 7.46185 31.1136 7.34227 31.2332C7.22261 31.3529 7.12775 31.4948 7.06307 31.6511C6.99832 31.8074 6.965 31.9748 6.965 32.144V43.071L5.11 42.497C2.49901 41.643 2.49901 40.6 2.49901 40.215V31.43C2.49901 28.217 5.432 22.001 9.576 23.856C13.3649 25.3543 17.5821 25.3543 21.371 23.856C25.571 22.071 28.441 28.056 28.441 31.43L28.518 40.215ZM15.505 2.499C17.5602 2.499 19.5312 3.31541 20.9844 4.76862C22.4376 6.22185 23.254 8.19286 23.254 10.248C23.254 12.3032 22.4376 14.2742 20.9844 15.7273C19.5312 17.1806 17.5602 17.997 15.505 17.997C13.6197 17.9963 11.8002 17.3039 10.3913 16.0512C8.98239 14.7984 8.08208 13.0723 7.861 11.2C9.67429 11.6382 11.5731 11.5704 13.3505 11.0039C15.1279 10.4373 16.7158 9.3938 17.941 7.98702C18.0989 7.73698 18.1628 7.43897 18.1213 7.14614C18.0796 6.85338 17.9352 6.58497 17.7139 6.38883C17.4926 6.19275 17.2086 6.08178 16.9129 6.07572C16.6173 6.06974 16.3292 6.16906 16.1 6.35601C15.1058 7.48068 13.8084 8.2948 12.3632 8.7008C10.918 9.1068 9.38642 9.0874 7.952 8.64501C8.32563 6.91499 9.27719 5.36376 10.6501 4.24668C12.0229 3.12955 13.7352 2.51318 15.505 2.499Z" fill="white"/>
</svg>
