<svg width="70" height="96" viewBox="0 0 70 96" fill="none" xmlns="http://www.w3.org/2000/svg">
<path d="M18.7258 57.0554C19.3795 56.6784 19.6033 55.8415 19.2262 55.1878C18.8486 54.5347 18.0123 54.3104 17.3586 54.6874C16.7049 55.065 16.4806 55.9019 16.8582 56.5551C17.2353 57.2087 18.0721 57.433 18.7258 57.0554Z" fill="white"/>
<path d="M13.1228 66.4912L20.0079 78.4173C21.4936 80.9936 24.8358 81.9474 27.4789 80.4195C30.0941 78.9081 30.9929 75.5665 29.48 72.9491L25.3784 65.8439L28.9304 63.7931C29.5841 63.4151 29.8084 62.5792 29.4308 61.9256L27.653 58.8462C27.865 58.805 29.2589 58.5317 53.8399 53.7096C56.8787 53.5446 58.6993 50.2212 57.1645 47.5642L52.6207 39.6944L55.5244 35.2964C55.8095 34.8638 55.8266 34.3079 55.5676 33.8593L52.8332 29.1233C52.5742 28.6746 52.0824 28.4119 51.567 28.4423L46.3071 28.7579L41.2628 20.0207C40.5323 18.755 39.2233 17.9887 37.7621 17.9705C37.7445 17.97 37.7274 17.97 37.7098 17.97C36.2978 17.97 35.016 18.6728 34.2566 19.8611L16.3966 42.613L4.78567 49.3165C0.218941 51.952 -1.36294 57.8107 1.28279 62.3896C3.69993 66.5767 8.79587 68.2237 13.1228 66.4912ZM27.1125 74.3167C27.8677 75.6231 27.4206 77.2946 26.1106 78.0515C24.7963 78.8114 23.1226 78.3446 22.3759 77.0506L15.54 65.2089L20.276 62.4746C28.1875 76.1796 26.9854 74.0973 27.1125 74.3167ZM24.0112 63.4754L22.644 61.1074L25.012 59.7402L26.3792 62.1082L24.0112 63.4754ZM50.8877 31.2221L52.7772 34.4948L51.0922 37.0465L47.8355 31.4053L50.8877 31.2221ZM36.5434 21.3602C36.9103 20.7599 37.4924 20.6979 37.7285 20.7043C37.9619 20.707 38.5435 20.7796 38.8943 21.3874L54.7964 48.9314C55.3144 49.8281 54.6848 50.9555 53.6461 50.9811C53.4597 50.9854 53.3737 51.019 52.8962 51.1082L36.075 21.9728C36.4281 21.5188 36.4734 21.475 36.5434 21.3602ZM34.2555 24.2906L50.0599 51.6647L26.2078 56.3431L18.9553 43.7815L34.2555 24.2906ZM3.6508 61.0225C3.05052 59.9837 2.73328 58.8045 2.73328 57.6115C2.73328 55.1729 4.04386 52.9021 6.15286 51.6845L16.8089 45.5321L23.6449 57.3722L12.9888 63.5251C9.72412 65.4092 5.53549 64.2866 3.6508 61.0225Z" fill="white"/>
<path d="M14.49 57.9225C14.1125 57.2689 13.2761 57.0446 12.6224 57.4221L10.2544 58.7893C9.60179 59.1663 8.76388 58.9415 8.38685 58.2889C8.00922 57.6352 7.17291 57.4109 6.51923 57.7885C5.86554 58.1661 5.64124 59.0024 6.01881 59.6561C7.14408 61.6054 9.65415 62.2927 11.6216 61.1573L13.9896 59.7901C14.6433 59.4126 14.8677 58.5767 14.49 57.9225Z" fill="white"/>
<path d="M67.9679 20.8946L60.3496 25.134C59.69 25.5015 59.4524 26.334 59.8198 26.9936C60.1862 27.6526 61.0182 27.8914 61.6794 27.5233L69.2972 23.284C69.9573 22.9166 70.1944 22.084 69.827 21.4244C69.4601 20.7643 68.6275 20.5272 67.9679 20.8946Z" fill="white"/>
<path d="M67.1691 35.0545L61.8868 33.6392C61.1573 33.4438 60.4074 33.8764 60.212 34.6059C60.0165 35.3354 60.4496 36.0847 61.1792 36.2802L66.462 37.6954C67.1958 37.8925 67.9419 37.453 68.1363 36.7288C68.3317 35.9992 67.8986 35.2494 67.1691 35.0545Z" fill="white"/>
<path d="M53.8949 15.9277L52.4781 21.2106C52.2826 21.9401 52.7152 22.6893 53.4447 22.8853C54.1738 23.0803 54.9236 22.6488 55.1196 21.9187L56.5359 16.6358C56.7314 15.9063 56.2988 15.1565 55.5692 14.961C54.8402 14.7656 54.0904 15.1981 53.8949 15.9277Z" fill="white"/>
</svg>
