<svg width="70" height="96" viewBox="0 0 70 96" fill="none" xmlns="http://www.w3.org/2000/svg">
<path d="M69.8734 69.6716C69.545 68.0908 68.6158 66.7401 67.2565 65.868C65.8974 64.9964 64.2829 64.715 62.7085 65.075L55.4122 66.7455V63.7628C56.8755 62.3844 58.3992 60.5846 59.4828 58.9398C61.383 56.0552 62.7277 52.8878 63.4797 49.5269C64.3737 45.5285 64.3929 41.2956 63.5347 37.2842C63.3766 36.5461 62.6497 36.0751 61.9117 36.2338C61.1731 36.3913 60.7031 37.1181 60.8606 37.8567C61.6372 41.4846 61.6201 45.3137 60.811 48.9298C60.1317 51.9665 58.9162 54.8286 57.1992 57.4353C56.6902 58.2081 56.0728 59.0188 55.4122 59.7931V44.6388C55.4122 43.8835 54.8002 43.2716 54.045 43.2716H43.2298V28.6715C43.2298 27.9185 42.6205 27.3069 41.8674 27.3043L29.6851 27.2632C29.6834 27.2632 29.6824 27.2632 29.6808 27.2632C29.3187 27.2632 28.9715 27.4063 28.7158 27.6621C28.4583 27.9185 28.3136 28.2666 28.3136 28.6304V36.2252H17.4968C16.7422 36.2252 16.1296 36.8373 16.1296 37.5924V51.1313H13.0834V49.2743C13.0834 48.5197 12.4713 47.9077 11.7162 47.9077H10.3137C10.075 46.5934 9.93668 45.2583 9.90413 43.9252C9.82398 40.684 10.3378 37.5128 11.4305 34.4986C11.6852 33.7958 11.9746 33.0951 12.2903 32.4168C12.6091 31.7322 12.3121 30.9188 11.6281 30.6C10.9434 30.2822 10.13 30.578 9.81173 31.2627C9.4619 32.0136 9.14148 32.7891 8.85999 33.5667C7.65091 36.9018 7.08267 40.4101 7.17026 43.9925C7.20283 45.302 7.3278 46.6126 7.53982 47.9077H1.36719C0.61203 47.9077 0 48.5197 0 49.2749V73.3064C0 74.0616 0.61203 74.6736 1.36719 74.6736H11.7162C12.4713 74.6736 13.0834 74.0616 13.0834 73.3064V72.0065H18.2263L39.0594 80.1776C41.0044 80.9408 43.0419 81.3247 45.09 81.3247C46.4555 81.3247 47.827 81.1538 49.1776 80.8105L65.5064 76.6603C68.6061 75.8726 70.5239 72.8028 69.8734 69.6716ZM52.6783 46.0059V67.3714L49.0233 68.2083C48.6302 68.298 48.2329 68.369 47.8334 68.4246C46.3103 68.6345 44.7562 68.5901 43.2491 68.2916C43.2427 68.29 43.2362 68.289 43.2298 68.2873V66.2142C44.2723 64.6589 44.6178 62.6872 44.0715 60.8874C43.9193 60.3854 43.703 59.901 43.428 59.454C43.3654 59.3526 43.3003 59.2532 43.2325 59.156C43.232 59.1544 43.2309 59.1533 43.2298 59.1518V46.0054L52.6783 46.0059ZM31.048 30.0024L40.496 30.0339V56.9803L35.2158 54.7949L31.048 53.0694V30.0024ZM18.864 38.9596H28.312V51.9366L26.6164 51.2349C26.4503 51.166 26.2724 51.1307 26.0936 51.1307H18.864V38.9596ZM10.349 71.9392H2.73438V50.6415H9.1847C9.18741 50.6415 9.19056 50.642 9.1938 50.642C9.19651 50.642 9.19861 50.6415 9.20124 50.6415H10.349V71.9392ZM64.833 74.0103L48.5041 78.1604C45.6854 78.8766 42.7647 78.6934 40.0575 77.6323L18.9842 69.3667C18.825 69.3041 18.6557 69.2726 18.4848 69.2726H13.0834V53.8656H25.8212L34.6672 57.5272L39.508 59.5309C41.2207 60.2412 42.0405 62.2503 41.3382 63.9609C41.1972 64.3043 41.0225 64.6307 40.7908 64.9217C39.9347 66.0021 38.5253 66.4785 37.2073 66.1581C37.1966 66.1554 37.1859 66.1527 37.1753 66.15C37.0962 66.1302 37.0177 66.1073 36.9397 66.0817L27.7406 62.5451C27.6658 62.5163 27.6263 62.5014 27.6263 62.5014C26.9218 62.23 26.1309 62.5819 25.8596 63.2869C25.5889 63.9914 25.9403 64.7828 26.6452 65.0536C26.6452 65.0536 31.832 67.0478 35.7872 68.5731C35.8668 68.604 35.9458 68.6328 36.0254 68.6595L39.0625 69.8276C39.9806 70.1805 40.8944 70.5319 41.8499 70.7761C43.4723 71.1905 45.1562 71.3571 46.8289 71.2658C47.772 71.2145 48.7135 71.0841 49.6342 70.8738L54.3505 69.7944C54.3554 69.7933 54.3601 69.7912 54.3649 69.7902L63.3189 67.7404C64.1708 67.5456 65.0451 67.6977 65.7799 68.1693C66.5158 68.6414 67.0184 69.3726 67.1962 70.2281C67.5487 71.9227 66.5105 73.5841 64.833 74.0103Z" fill="white"/>
<path d="M17.4832 24.5014C17.81 24.5014 18.138 24.3851 18.3992 24.149C20.8387 21.9455 23.752 20.1879 26.8255 19.0658C30.1553 17.8503 33.8056 17.3317 37.3822 17.5667C39.9419 17.7349 42.4498 18.2813 44.8361 19.1903C45.541 19.4589 46.3314 19.1053 46.6001 18.3993C46.8692 17.6938 46.5151 16.904 45.8091 16.6353C43.1687 15.6292 40.3938 15.0246 37.5617 14.8382C33.6086 14.5787 29.5716 15.1522 25.8877 16.4975C22.4873 17.7387 19.2643 19.6832 16.5668 22.1196C16.006 22.6259 15.9622 23.4905 16.4685 24.0507C16.7382 24.3498 17.1099 24.5014 17.4832 24.5014Z" fill="white"/>
<path d="M48.5193 34.2583C48.7783 34.4832 49.0977 34.5932 49.4154 34.5932C49.7973 34.5932 50.1776 34.434 50.4484 34.1232L61.6967 21.175C62.1923 20.6052 62.1314 19.7416 61.5616 19.2465C60.9912 18.7514 60.1281 18.8118 59.6331 19.3816L48.3842 32.3299C47.8886 32.8997 47.9495 33.7632 48.5193 34.2583Z" fill="white"/>
<path d="M58.5999 28.4133C56.7072 28.4133 55.1675 29.9531 55.1675 31.8458C55.1675 33.7384 56.7072 35.2781 58.5999 35.2781C60.4926 35.2781 62.0323 33.7379 62.0323 31.8458C62.0323 29.9531 60.4926 28.4133 58.5999 28.4133ZM58.5999 32.5438C58.2148 32.5438 57.9019 32.2308 57.9019 31.8458C57.9019 31.4612 58.2148 31.1477 58.5999 31.1477C58.9844 31.1477 59.2979 31.4612 59.2979 31.8458C59.2979 32.2308 58.9844 32.5438 58.5999 32.5438Z" fill="white"/>
<path d="M51.008 25.3694C52.9008 25.3694 54.4404 23.8297 54.4404 21.937C54.4404 20.0443 52.9008 18.5046 51.008 18.5046C49.1153 18.5046 47.5757 20.0443 47.5757 21.937C47.5757 23.8297 49.1153 25.3694 51.008 25.3694ZM51.008 21.2385C51.3931 21.2385 51.706 21.552 51.706 21.937C51.706 22.3215 51.3931 22.6351 51.008 22.6351C50.623 22.6351 50.3101 22.3215 50.3101 21.937C50.3101 21.552 50.623 21.2385 51.008 21.2385Z" fill="white"/>
<path d="M12.6231 27.7142C12.8422 28.2397 13.381 28.5869 13.9519 28.557C14.5164 28.5276 15.0109 28.1457 15.1856 27.6095C15.3618 27.0685 15.1696 26.4522 14.7172 26.1067C14.2563 25.7553 13.609 25.7334 13.1263 26.0544C12.5906 26.4106 12.3759 27.1209 12.6231 27.7142Z" fill="white"/>
</svg>
